<svg
  xmlns="http://www.w3.org/2000/svg"
  width="702"
  height="664"
  viewBox="0 0 702 664"
  version="1.1"
  ><path
    d="M 339 7.845 C 322.763 19.872, 309.963 38.165, 302.506 60 L 300.286 66.500 306.958 74 C 321.739 90.616, 331.985 104.965, 338.734 118.500 C 343.012 127.080, 345.507 133.826, 344.702 134.632 C 344.428 134.905, 335.082 131.481, 323.933 127.022 C 309.685 121.324, 302.895 119.080, 301.081 119.469 C 298.869 119.944, 298.171 119.444, 296.201 115.979 C 287.646 100.928, 259.726 69.469, 239.177 51.727 C 228.241 42.285, 214.882 31.785, 214.408 32.259 C 214.140 32.527, 234.285 86.948, 236.670 92.397 C 237.126 93.440, 239.340 95.015, 241.589 95.897 C 254.660 101.022, 270.554 114.047, 281.178 128.341 L 287.007 136.182 284.937 139.089 C 283.799 140.687, 281.885 142.197, 280.684 142.444 C 279 142.790, 249.604 144.559, 236.500 145.102 C 235.400 145.148, 245.525 146.693, 259 148.535 C 272.475 150.378, 284.983 152.111, 286.795 152.387 C 289.819 152.848, 290.826 152.192, 299.001 144.445 C 303.902 139.800, 308.273 136, 308.713 136 C 309.154 136, 315.361 139.198, 322.507 143.106 C 329.653 147.014, 339.100 152.141, 343.500 154.499 L 351.500 158.787 360.500 153.829 C 365.450 151.102, 374.900 146.001, 381.501 142.492 L 393.501 136.114 398.550 140.807 C 401.327 143.388, 405.399 147.105, 407.600 149.067 L 411.602 152.635 442.051 149.016 L 472.500 145.397 478.450 141.540 C 492.328 132.543, 504.843 127.874, 538.597 119.100 C 565.056 112.223, 573.217 109.463, 585.058 103.387 C 599.151 96.156, 612.056 84.081, 620.906 69.845 L 624.043 64.798 619.271 68.276 C 604.990 78.685, 588.938 83.070, 543.500 88.973 C 506.747 93.749, 490.719 96.979, 473.320 103.119 C 453.915 109.968, 436.348 120.870, 424.792 133.238 C 421.102 137.186, 417.928 140.211, 417.738 139.958 C 417.547 139.706, 414.154 135.387, 410.196 130.361 C 406.238 125.335, 403 120.807, 403 120.299 C 403 118.768, 414.669 102.133, 422.840 92.015 C 436.777 74.757, 461.916 50.741, 481.495 35.983 C 489.026 30.306, 488.276 30.274, 475 35.708 C 427.349 55.215, 385.639 89.853, 366.033 126.201 C 362.198 133.311, 361.661 133.852, 356.473 135.838 C 352.340 137.419, 350.355 137.705, 348.474 136.990 L 345.972 136.039 346.236 69.519 C 346.381 32.934, 346.275 3.007, 346 3.015 C 345.725 3.023, 342.575 5.197, 339 7.845 M 78.652 69.673 C 82.766 98.255, 95.150 125.568, 114.839 149.486 C 120.155 155.943, 121.527 157.078, 123.339 156.511 C 127.760 155.129, 146.849 154.768, 153.630 155.938 C 169.915 158.747, 189.879 167.393, 207.931 179.454 L 218.710 186.656 217.768 182.578 C 215.747 173.836, 218.794 160.447, 225.047 150.586 C 228.871 144.558, 228.616 144.212, 215.237 137.242 C 202.467 130.589, 189.807 126.288, 164.453 119.988 C 133.545 112.309, 119.822 106.982, 106.500 97.492 C 98.632 91.888, 87.310 80.096, 82.190 72.173 L 78.101 65.846 78.652 69.673 M 231.540 163.579 C 226.103 171.877, 225.503 182.686, 229.983 191.650 C 231.624 194.933, 234.092 198.677, 235.467 199.969 L 237.969 202.319 243.734 196.935 C 246.906 193.973, 255.945 185.419, 263.823 177.926 L 278.146 164.303 257.823 163.103 C 246.645 162.443, 236.537 161.703, 235.359 161.460 C 233.866 161.151, 232.711 161.792, 231.540 163.579 M 444 162.758 C 432.175 163.570, 422.288 164.431, 422.029 164.672 C 421.770 164.912, 422.063 165.422, 422.679 165.804 C 423.846 166.528, 435.783 177.824, 451.862 193.419 L 461.224 202.500 465.536 197.737 C 471.020 191.680, 473.455 184.701, 472.686 177.246 C 472.149 172.045, 467.621 160.841, 466.176 161.141 C 465.804 161.218, 455.825 161.946, 444 162.758 M 543.250 168.026 C 526.805 170.270, 505.291 179.397, 485 192.737 C 467.459 204.269, 467.041 204.822, 462.024 223.134 L 457.741 238.768 467.441 254.902 L 477.141 271.035 474.837 274.768 C 473.569 276.820, 464.169 291.550, 453.946 307.500 L 435.360 336.500 420.430 344 L 405.500 351.500 420.250 351.777 C 428.882 351.939, 435 352.454, 435 353.020 C 435 353.551, 428.813 357.116, 421.250 360.941 L 407.500 367.895 421.250 367.948 L 435 368 435 374.628 L 435 381.256 428 389.568 L 421 397.881 420.992 411.190 L 420.984 424.500 403.242 434.748 L 385.500 444.995 349.707 444.998 L 313.915 445 296.460 434.750 C 286.859 429.112, 279.453 424.350, 280.002 424.167 C 280.597 423.968, 280.991 418.724, 280.978 411.167 L 280.956 398.500 273.432 389.500 L 265.909 380.500 266.302 374.500 L 266.695 368.500 279.396 368 L 292.097 367.500 279.549 361.255 C 269.732 356.370, 267 354.574, 267 353.005 C 267 351.104, 267.659 351, 279.750 350.991 L 292.500 350.982 280 344.898 L 267.500 338.815 253.739 317.158 C 246.170 305.246, 236.419 290.037, 232.070 283.360 L 224.162 271.220 234.110 254.760 L 244.059 238.299 238.803 223.709 C 235.913 215.684, 233.358 209.308, 233.127 209.540 C 232.895 209.772, 231.889 214.753, 230.891 220.609 C 229.894 226.464, 228.873 231.461, 228.622 231.711 C 228.371 231.962, 224.094 230.538, 219.116 228.547 C 196.027 219.309, 173.358 218.340, 151.213 225.646 C 129.399 232.842, 111.407 244.820, 74.071 277.004 C 42.956 303.825, 29.471 311.805, 11.839 313.830 L 5.500 314.557 14 317.850 C 23.705 321.610, 38.653 325.352, 50.864 327.080 C 62.870 328.779, 91.860 327.715, 103.816 325.138 C 113.055 323.146, 113.192 323.072, 120.414 316.211 C 144.334 293.490, 172.018 280.915, 201.641 279.315 L 212.782 278.714 215.244 282.607 C 219.606 289.502, 241.008 325.857, 241.573 327.330 C 241.964 328.348, 241.033 328.958, 238.310 329.465 C 236.214 329.855, 230.450 331.732, 225.500 333.634 C 193.473 345.946, 177.719 366.965, 171.635 405.500 C 170.766 411, 169.138 426.610, 168.017 440.190 C 164.774 479.461, 160.729 498.596, 151.993 516 C 144.713 530.503, 132.891 543.536, 118.455 552.973 C 110.808 557.973, 110.655 558.146, 114.500 557.461 C 129.131 554.852, 155.127 546.518, 171.785 539.096 C 183.390 533.925, 202.525 523.373, 212.813 516.472 L 219.143 512.225 219.502 502.862 C 219.711 497.385, 220.743 490.388, 221.989 486 C 224.775 476.181, 232.343 460.399, 239.299 449.898 C 245.786 440.108, 257.748 425, 259.015 425 C 259.495 425, 261.121 426.061, 262.628 427.357 L 265.368 429.714 261.806 434.107 C 252.016 446.182, 241.202 465.480, 237.211 478 C 227.373 508.862, 235.205 533.186, 268.427 574.951 C 279.373 588.711, 290.758 601.518, 307.581 618.991 C 325.319 637.416, 335.013 648.093, 339.510 654.159 L 343.705 659.819 344.250 618.659 L 344.795 577.500 341.148 574.598 C 333.874 568.812, 322.828 556.553, 316.892 547.678 C 300.713 523.490, 292.626 498.033, 293.485 474 C 293.827 464.417, 295.295 456, 296.624 456 C 296.916 456, 302.324 460.281, 308.643 465.512 L 320.132 475.025 335.573 461.970 L 351.013 448.916 353.475 450.708 C 356.313 452.774, 355.904 443.709, 356.892 526.425 L 357.500 577.351 366.293 569.026 C 387.065 549.360, 401.849 522.172, 406.568 494.961 C 408.175 485.694, 408.111 466.573, 406.444 458.373 C 405.827 455.332, 406.258 454.876, 422.055 441.873 C 430.990 434.518, 439.445 427.551, 440.842 426.391 L 443.383 424.283 438.804 411.224 L 434.224 398.165 444.488 389.151 C 456.422 378.672, 455.159 382.587, 457.117 350 C 457.899 336.982, 458.715 330.038, 459.571 329.109 C 460.660 327.928, 462.180 328.130, 469.676 330.456 C 493.285 337.782, 510.594 351.247, 520.360 369.884 C 528.457 385.334, 531.182 398.770, 534.481 439.500 C 538.946 494.610, 546.145 516.567, 566.862 538.251 C 573.360 545.053, 591.543 558.790, 592.621 557.712 C 592.824 557.510, 591.628 553.329, 589.965 548.422 C 585.793 536.118, 583.810 522.872, 583.826 507.425 C 583.844 490.715, 585.820 476.589, 592.486 445.500 C 599.473 412.915, 600.294 407.134, 600.228 391 C 600.160 374.345, 598.146 365.692, 591.033 351.500 C 572.372 314.269, 538.168 290.906, 496.545 286.962 C 490.520 286.391, 485.468 285.801, 485.317 285.651 C 485.167 285.500, 487.058 282.141, 489.520 278.185 L 493.996 270.992 483.954 251.765 C 472.420 229.679, 472.283 231.971, 485.444 226.878 C 503.005 220.083, 522.228 218.310, 539.500 221.894 C 564.406 227.061, 585.442 239.829, 625.477 274.079 C 662.392 305.660, 674.929 312.936, 692.500 312.976 L 700.500 312.994 694.120 309.152 C 686.338 304.467, 674.688 293.163, 666.929 282.770 C 663.755 278.518, 656.761 267.943, 651.386 259.270 C 628.829 222.867, 624.534 216.117, 619.154 208.624 C 596.808 177.496, 571.812 164.127, 543.250 168.026 M 282.043 216.234 C 279.041 216.679, 274.316 218.106, 271.543 219.404 C 265.876 222.057, 255.406 229.466, 258.500 228.633 C 259.600 228.337, 261.625 227.877, 263 227.610 C 264.375 227.344, 266.738 226.864, 268.250 226.544 C 270.609 226.045, 271.003 226.284, 271.022 228.231 C 271.061 232.240, 274.674 238.650, 278.567 241.616 C 282.043 244.265, 283.035 244.500, 290.744 244.500 L 299.137 244.500 298.819 252.252 C 298.643 256.516, 298.725 259.994, 299 259.980 C 299.275 259.967, 300.625 259.076, 302 258 C 303.375 256.924, 304.837 256.034, 305.250 256.022 C 307.166 255.965, 305.093 284.699, 302.546 293.511 C 302.229 294.605, 302.687 293.955, 303.563 292.067 C 304.439 290.179, 306.738 282.979, 308.673 276.067 C 313.080 260.319, 314.290 242.949, 311.619 233.761 C 307.865 220.849, 296.468 214.096, 282.043 216.234 M 397.539 218.721 C 390.943 222.417, 386.460 228.471, 384.948 235.729 C 383.510 242.632, 384.230 258.410, 386.439 268.417 C 388.220 276.490, 394.084 295.250, 394.648 294.685 C 394.861 294.472, 394.319 290.969, 393.445 286.899 C 391.692 278.746, 390.249 256, 391.485 256 C 391.913 256, 393.667 256.868, 395.382 257.928 L 398.500 259.856 398.500 252.241 L 398.500 244.625 406.577 244.563 C 413.888 244.506, 415.012 244.227, 418.435 241.616 C 422.327 238.649, 425.939 232.238, 425.978 228.231 C 425.996 226.397, 426.431 226.060, 428.250 226.473 C 435.581 228.138, 439.484 228.850, 439.761 228.572 C 440.309 228.024, 430.738 222.226, 424.500 219.328 C 419.834 217.161, 416.722 216.475, 410.500 216.242 C 403.306 215.973, 402 216.223, 397.539 218.721 M 303.729 333.658 C 304.011 337.421, 304.525 340.768, 304.871 341.096 C 305.217 341.424, 315.723 346.093, 328.217 351.472 L 350.934 361.253 373.717 351.518 C 386.248 346.164, 396.814 341.495, 397.198 341.142 C 397.581 340.789, 398.202 337.350, 398.576 333.500 L 399.256 326.500 395.831 329.750 L 392.405 333 381.621 333 L 370.837 333 366.565 336.500 L 362.294 340 350.855 340 L 339.417 340 335.706 336.500 L 331.995 333 320.795 333 C 309.631 333, 309.585 332.990, 306.405 329.908 L 303.216 326.817 303.729 333.658 M 340.405 382.558 C 330.002 390.749, 329.316 391.119, 325.500 390.597 C 314.668 389.114, 299.889 387.777, 299.428 388.239 C 299.027 388.639, 305.470 405.651, 306.435 406.741 C 306.552 406.873, 311.986 404.212, 318.510 400.826 C 328.947 395.410, 331.623 394.469, 340.774 393.001 C 350.561 391.430, 351.778 391.434, 361.338 393.069 C 370.131 394.573, 373.093 395.645, 383.326 401.027 C 389.976 404.525, 395.522 406.865, 395.996 406.374 C 397.026 405.306, 404.257 387.897, 403.815 387.547 C 403.642 387.409, 396.569 388.115, 388.098 389.115 L 372.695 390.934 363.598 383.782 C 358.594 379.848, 353.782 376.031, 352.905 375.300 C 351.525 374.149, 349.850 375.122, 340.405 382.558"
    stroke="none"
    fill="#006738"
    fill-rule="evenodd"></path><path
    d="M 303.397 147.760 C 300.153 153.582, 297.613 158.717, 297.750 159.172 C 297.887 159.628, 297.593 160, 297.095 160 C 295.643 160, 290.829 168.915, 291.604 170.169 C 291.992 170.796, 291.871 171.039, 291.337 170.708 C 290.802 170.378, 288.778 172.896, 286.840 176.304 C 273.374 199.976, 261.563 221.617, 261.763 222.250 C 261.893 222.662, 261.475 223, 260.833 223 C 260.192 223, 259.908 223.241, 260.202 223.535 C 260.497 223.830, 263.384 222.497, 266.619 220.574 C 281.106 211.960, 294.856 212.276, 305.789 221.476 C 318.164 231.889, 317.354 257.885, 303.441 296.775 C 297.296 313.952, 292.888 317.978, 280.208 317.994 C 274.832 318.001, 262.092 315.407, 255.843 313.032 L 251.106 311.233 252.663 313.608 C 253.518 314.914, 254.569 315.767, 254.996 315.502 C 255.424 315.238, 255.712 315.804, 255.637 316.761 C 255.562 317.717, 256.046 318.393, 256.714 318.262 C 257.463 318.115, 257.685 318.657, 257.294 319.676 C 256.917 320.658, 257.067 321.077, 257.663 320.708 C 258.215 320.367, 258.667 320.639, 258.667 321.314 C 258.667 323.449, 264.199 330.995, 265.277 330.329 C 265.844 329.978, 266.013 330.171, 265.650 330.757 C 264.694 332.304, 268.254 338.096, 269.802 337.513 C 270.597 337.214, 270.825 337.474, 270.388 338.181 C 269.905 338.962, 270.231 339.125, 271.388 338.681 C 272.544 338.238, 272.870 338.401, 272.388 339.181 C 271.905 339.962, 272.231 340.125, 273.388 339.681 C 274.332 339.319, 274.871 339.400, 274.586 339.861 C 273.823 341.095, 278.599 343.366, 280.059 342.463 C 280.780 342.018, 281.057 342.099, 280.713 342.655 C 280.385 343.186, 283.518 345.302, 287.676 347.359 C 291.833 349.416, 295 351.333, 294.714 351.619 C 294.428 351.905, 288.300 352.135, 281.097 352.129 C 271.627 352.122, 268.001 352.449, 268.002 353.309 C 268.003 353.964, 274.077 357.425, 281.500 361 C 288.923 364.575, 294.997 367.837, 294.998 368.250 C 294.999 368.663, 288.813 369.092, 281.250 369.206 L 267.500 369.411 281 370 L 294.500 370.589 281.250 370.794 L 268 371 268 376.108 C 268 380.923, 268.374 381.668, 274.500 389.074 L 281 396.930 281 410.465 C 281 417.909, 281.121 424, 281.269 424 C 281.417 424, 289.562 425.353, 299.369 427.006 L 317.200 430.011 327.109 424.682 C 332.559 421.750, 336.677 418.976, 336.259 418.516 C 335.842 418.056, 336.062 418.002, 336.748 418.397 C 338.308 419.295, 344.108 415.984, 343.291 414.662 C 342.961 414.128, 343.170 413.987, 343.755 414.349 C 345.154 415.213, 348.145 414.043, 347.442 412.907 C 347.142 412.421, 347.594 412.291, 348.448 412.618 C 349.790 413.133, 350 411.797, 350 402.762 L 350 392.311 340.247 393.958 C 330.259 395.646, 319.427 400.263, 320.684 402.297 C 321.028 402.854, 320.823 403.009, 320.229 402.642 C 318.867 401.799, 313.882 404, 314.583 405.135 C 314.870 405.598, 314.332 405.681, 313.388 405.319 C 312.132 404.836, 311.891 405.015, 312.490 405.985 C 313.015 406.833, 312.921 407.069, 312.229 406.642 C 311.636 406.275, 309.914 406.538, 308.404 407.226 C 306.216 408.222, 305.575 408.224, 305.244 407.232 C 305.016 406.548, 304.348 406.285, 303.760 406.648 C 303.125 407.041, 302.983 406.836, 303.410 406.146 C 304.421 404.510, 303.084 400.830, 301.773 401.640 C 301.126 402.040, 300.980 401.842, 301.410 401.146 C 302.349 399.627, 301.128 395.803, 299.939 396.537 C 299.434 396.850, 299.318 396.334, 299.681 395.388 C 300.164 394.132, 299.985 393.891, 299.015 394.490 C 298.131 395.037, 297.930 394.923, 298.410 394.146 C 299.349 392.627, 298.128 388.803, 296.939 389.537 C 296.435 389.849, 296.291 389.406, 296.618 388.552 C 297.363 386.611, 298.408 386.614, 315.145 388.597 L 328.791 390.215 331.856 387.948 C 333.542 386.702, 334.645 385.234, 334.306 384.686 C 333.968 384.139, 334.164 383.983, 334.741 384.340 C 335.319 384.697, 336.851 384.057, 338.146 382.918 C 339.441 381.779, 339.868 381.176, 339.095 381.578 C 338.164 382.063, 337.934 381.915, 338.415 381.138 C 338.813 380.494, 339.510 380.197, 339.965 380.478 C 340.420 380.759, 341.647 380.204, 342.693 379.245 C 343.739 378.285, 343.898 377.950, 343.047 378.500 C 341.693 379.375, 341.673 379.279, 342.893 377.726 C 343.658 376.750, 344.505 376.172, 344.774 376.441 C 345.430 377.097, 349 375.141, 349 374.125 C 349 372.887, 343.988 370.889, 342.771 371.642 C 342.177 372.009, 341.961 371.872, 342.291 371.338 C 343.092 370.042, 337.312 366.689, 335.843 367.597 C 335.077 368.070, 334.965 367.865, 335.510 366.985 C 336.109 366.015, 335.868 365.836, 334.612 366.319 C 333.456 366.762, 333.130 366.599, 333.612 365.819 C 334.095 365.038, 333.769 364.875, 332.612 365.319 C 331.668 365.681, 331.135 365.591, 331.426 365.119 C 331.884 364.379, 314.515 354.363, 306.876 350.962 C 304.037 349.698, 303.872 348.974, 302.421 331.500 L 301.757 323.500 306.166 327.750 L 310.576 332 321.665 332 C 330.267 332, 333.032 332.334, 333.991 333.489 C 334.671 334.308, 335.738 334.686, 336.363 334.329 C 336.988 333.972, 337.162 334.052, 336.748 334.509 C 336.334 334.965, 336.741 336.162, 337.653 337.169 C 339.078 338.744, 340.938 339, 350.959 339 L 362.608 339 366 335.500 L 369.392 332 380.946 331.982 L 392.500 331.964 395.750 328.049 C 399.137 323.969, 400.560 317.461, 397.511 319.991 C 396.692 320.671, 396.312 321.695, 396.666 322.268 C 397.025 322.849, 396.829 323.013, 396.224 322.638 C 395.627 322.269, 394.856 322.425, 394.510 322.984 C 394.142 323.579, 389.011 324, 382.128 324 L 370.374 324 367.437 327.212 C 365.822 328.978, 365.400 329.766, 366.500 328.962 C 368.346 327.612, 368.395 327.634, 367.137 329.239 C 366.387 330.195, 365.405 330.751, 364.956 330.473 C 364.506 330.195, 363.856 330.425, 363.510 330.984 C 363.165 331.543, 359.984 332, 356.441 332 L 350 332 349.982 245.750 L 349.963 159.500 339.754 154 C 334.139 150.975, 328.977 148.562, 328.283 148.637 C 327.589 148.712, 327.316 148.299, 327.675 147.717 C 328.086 147.052, 327.692 146.904, 326.612 147.319 C 325.456 147.762, 325.130 147.599, 325.612 146.819 C 326.095 146.038, 325.769 145.875, 324.612 146.319 C 323.643 146.691, 323.148 146.569, 323.476 146.039 C 324.261 144.768, 320.270 142.729, 318.729 143.614 C 318.053 144.003, 317.836 143.950, 318.246 143.497 C 319.244 142.396, 313.181 138.770, 311.785 139.633 C 311.168 140.014, 310.974 139.852, 311.340 139.259 C 311.697 138.682, 311.382 137.977, 310.641 137.692 C 309.742 137.348, 307.328 140.702, 303.397 147.760 M 394.564 204.061 C 388.634 205.545, 384.453 209.326, 381.080 216.255 C 374.167 230.454, 374.652 249.897, 382.543 275 C 385.262 283.649, 391.621 297.875, 394.388 301.500 C 396.018 303.636, 396.003 303.579, 389.087 281.574 C 387.371 276.115, 385.693 269.935, 385.359 267.842 C 385.024 265.749, 384.450 264.222, 384.084 264.448 C 383.718 264.674, 383.605 263.255, 383.834 261.293 C 384.063 259.332, 383.857 257.970, 383.375 258.268 C 382.894 258.566, 382.500 253.720, 382.500 247.500 C 382.500 241.280, 382.783 236.366, 383.128 236.579 C 384.041 237.144, 385.111 231.003, 384.335 229.647 C 383.974 229.016, 384.034 228.820, 384.467 229.211 C 384.900 229.602, 386.490 228.082, 388 225.834 C 391.240 221.009, 397.683 216.432, 403.405 214.890 C 409.603 213.219, 417.510 214.563, 426 218.730 C 430.125 220.754, 434.058 222.369, 434.739 222.318 C 435.421 222.267, 435.762 222.576, 435.498 223.004 C 435.233 223.431, 436.207 224.561, 437.662 225.514 C 441.596 228.092, 432.156 216.084, 427.102 212.081 C 418.008 204.878, 404.550 201.561, 394.564 204.061 M 381.272 246 C 381.272 248.475, 381.467 249.488, 381.706 248.250 C 381.944 247.012, 381.944 244.988, 381.706 243.750 C 381.467 242.512, 381.272 243.525, 381.272 246 M 301.272 337 C 301.272 339.475, 301.467 340.488, 301.706 339.250 C 301.944 338.012, 301.944 335.988, 301.706 334.750 C 301.467 333.512, 301.272 334.525, 301.272 337"
    stroke="none"
    fill="#ffffff"
    fill-rule="evenodd"></path>
  <path
    d="M 355 68.912 C 355 122.442, 355.254 135.840, 356.261 135.453 C 356.955 135.187, 358.107 133.064, 358.822 130.735 C 363.540 115.356, 377.607 93.814, 396.135 73.594 L 402.361 66.799 401.121 62.150 C 399.373 55.592, 391.782 39.893, 386.849 32.633 C 378.522 20.378, 367.288 9.074, 358.089 3.693 L 355 1.887 355 68.912 M 487.179 30.626 C 487.355 31.245, 481.650 36.393, 474.500 42.066 C 459.390 54.053, 431.401 81.664, 421.717 94.137 C 418.029 98.887, 412.325 106.709, 409.043 111.519 L 403.075 120.265 407.788 126.202 C 410.379 129.468, 413.213 133.056, 414.085 134.177 C 415.628 136.159, 415.799 136.036, 420.345 129.665 C 430.129 115.955, 443.815 104.313, 458.161 97.501 L 465.645 93.947 477.304 62.755 C 485.431 41.012, 488.644 31.251, 487.910 30.532 C 487.185 29.821, 486.957 29.851, 487.179 30.626 M 216 31.750 C 216 32.163, 218.825 34.591, 222.278 37.147 C 246.880 55.355, 275.795 85.340, 293.688 111.197 C 298.101 117.575, 300.002 119.598, 300.817 118.783 C 301.632 117.968, 306.805 119.623, 320.214 124.986 C 330.271 129.009, 339.135 132.795, 339.911 133.400 C 341.124 134.346, 341.125 134.185, 339.920 132.250 C 339.149 131.012, 338.151 130, 337.700 130 C 337.250 130, 337.116 129.621, 337.402 129.158 C 337.689 128.695, 336.009 124.957, 333.669 120.853 C 321.348 99.231, 297.590 75.844, 268.714 56.912 C 254.333 47.484, 245.275 42.719, 229.119 36.085 C 215.630 30.545, 216 30.667, 216 31.750 M 624.079 64.166 C 623.941 67.075, 613.950 80.981, 607.015 87.916 C 596.384 98.548, 583.860 106.069, 567 111.948 C 563.425 113.195, 549.475 117.034, 536 120.479 C 507.896 127.666, 494.031 132.751, 480.820 140.716 L 471.500 146.335 444 149.636 C 428.875 151.451, 415.139 152.951, 413.477 152.968 C 411.008 152.994, 408.994 151.533, 402.500 145 C 398.126 140.600, 394.167 137, 393.702 137 C 393.237 137, 383.450 142.063, 371.953 148.250 L 351.050 159.500 351.025 245.250 L 351 331 356.804 331 C 362.124 331, 362.890 330.708, 366 327.500 L 369.392 324 380.946 323.959 C 392.316 323.919, 392.556 323.871, 396 320.916 L 399.500 317.914 399.825 320.541 C 400.003 321.987, 399.841 323.918, 399.463 324.834 C 399.086 325.751, 398.836 329.425, 398.908 333 C 398.979 336.575, 398.684 340.032, 398.251 340.683 C 397.819 341.334, 387.017 346.321, 374.248 351.767 L 351.031 361.667 329.297 352.333 C 317.343 347.200, 307.024 343, 306.365 343 C 305.706 343, 304.927 342.437, 304.633 341.750 C 304.340 341.063, 304.165 342.402, 304.244 344.726 L 304.388 348.952 327.444 361.215 C 340.125 367.959, 350.619 373.362, 350.765 373.220 C 350.911 373.078, 355.796 376.796, 361.620 381.481 C 367.535 386.239, 373.157 389.999, 374.355 389.999 C 375.535 389.998, 382.503 389.299, 389.840 388.445 C 397.177 387.592, 403.548 387.030, 403.999 387.197 C 404.809 387.497, 397.632 405.757, 396.099 407.297 C 395.663 407.736, 390.174 405.308, 383.903 401.902 C 374.454 396.771, 370.872 395.400, 363 393.899 C 357.775 392.904, 352.938 392.069, 352.250 392.044 C 351.329 392.012, 350.999 394.696, 350.995 402.250 L 350.989 412.500 333.745 421.656 L 316.500 430.813 298.500 427.517 C 288.600 425.704, 280.390 424.319, 280.255 424.439 C 280.120 424.559, 287.590 429.009, 296.853 434.328 L 313.697 444 349.827 444 L 385.957 444 403.229 434.099 L 420.500 424.199 420.777 410.793 L 421.054 397.386 428.027 388.967 C 434.881 380.693, 435 380.450, 435 374.774 L 435 369 420.500 369 C 412.525 369, 406.028 368.663, 406.062 368.250 C 406.096 367.837, 412.396 364.474, 420.062 360.777 C 427.728 357.079, 434 353.603, 434 353.053 C 434 352.445, 428.231 351.945, 419.250 351.777 L 404.500 351.500 419.448 343.944 L 434.395 336.389 455.189 304.444 C 466.625 286.875, 475.986 271.964, 475.991 271.308 C 475.996 270.653, 471.860 263.238, 466.801 254.832 C 461.741 246.425, 457.683 238.637, 457.784 237.524 C 457.884 236.411, 459.766 229.200, 461.965 221.500 C 465.834 207.954, 466.126 207.345, 470.947 202.713 C 473.687 200.080, 475.936 197.713, 475.944 197.452 C 476.144 191.205, 502.220 172.779, 523.294 163.993 C 541.602 156.360, 559.140 153.807, 576 156.320 L 581.500 157.140 587.610 149.820 C 605.383 128.529, 618.042 102.148, 623.052 75.961 C 624.209 69.913, 624.931 64.411, 624.657 63.733 C 624.354 62.984, 624.127 63.154, 624.079 64.166 M 79 65.530 C 79 67.459, 89.264 81.290, 94.991 87.079 C 110.159 102.409, 124.721 109.251, 162.733 118.907 C 173.857 121.734, 187.131 125.392, 192.230 127.038 C 200.924 129.844, 223.228 140.264, 227.366 143.452 C 229.176 144.847, 229.165 144.997, 226.994 148.509 C 223.255 154.559, 220.346 161.227, 219.049 166.718 C 217.726 172.315, 218.067 186.714, 219.577 189.074 C 221.130 191.502, 222.897 195, 222.570 195 C 222.399 195, 217.856 192.316, 212.476 189.036 C 207.096 185.755, 202.313 183.307, 201.847 183.595 C 201.381 183.883, 201 183.709, 201 183.210 C 201 181.746, 182.283 173.366, 172.500 170.451 C 160.418 166.850, 144.938 166.033, 134.726 168.456 C 114.802 173.184, 96.950 187.431, 79.536 212.500 C 76.098 217.450, 67.971 230.275, 61.477 241 C 54.983 251.725, 46.211 265.675, 41.983 272 C 37.755 278.325, 34.130 283.950, 33.927 284.500 C 33.725 285.050, 32.308 286.553, 30.780 287.839 C 29.251 289.125, 28 290.579, 28 291.068 C 28 293.003, 12.821 305.712, 5 310.326 L 0.500 312.981 8.645 312.991 C 27.261 313.012, 40.197 305.510, 78.500 272.480 C 113.211 242.548, 134.448 229.234, 157.825 222.751 C 164.198 220.984, 168.213 220.625, 181.500 220.639 C 196.010 220.654, 198.338 220.908, 206.500 223.374 C 211.450 224.870, 218.332 227.408, 221.794 229.015 C 226.208 231.064, 228.211 231.572, 228.501 230.718 C 228.728 230.048, 229.768 224.325, 230.812 218 L 232.711 206.500 234.307 210.256 C 235.185 212.321, 237.771 219.521, 240.055 226.256 L 244.208 238.500 234.517 254.803 C 229.188 263.770, 225.043 271.645, 225.308 272.303 C 226.381 274.974, 250.961 311.476, 251.485 311.176 C 251.795 310.998, 255.751 312.122, 260.275 313.674 C 267.281 316.077, 270.079 316.496, 279.154 316.498 C 289.621 316.500, 289.877 316.445, 293.654 313.355 C 295.770 311.626, 297.437 309.488, 297.361 308.605 C 297.285 307.722, 297.608 307, 298.080 307 C 298.551 307, 298.650 306.251, 298.299 305.336 C 297.832 304.120, 298.021 303.895, 299 304.500 C 299.972 305.101, 300.169 304.883, 299.717 303.705 C 299.374 302.812, 299.738 300.150, 300.526 297.790 C 302.968 290.472, 305 276.168, 305 266.287 L 305 256.837 301.391 259.068 L 297.781 261.298 298.049 255.899 C 298.197 252.930, 298.246 249.061, 298.159 247.302 C 298.004 244.179, 297.927 244.129, 294.922 245.177 C 290.603 246.683, 283.236 245.435, 278.966 242.477 C 274.820 239.603, 271 233.435, 271 229.614 C 271 226.565, 271.444 226.623, 262.569 228.503 C 256.073 229.879, 252.669 229.832, 256.357 228.417 C 257.261 228.070, 258 227.356, 258 226.831 C 258 226.306, 266.490 210.941, 276.866 192.688 C 287.242 174.435, 297.870 155.675, 300.484 151 C 303.098 146.325, 306.177 140.925, 307.327 139 C 308.918 136.336, 307.073 137.659, 299.602 144.540 L 289.787 153.580 265.643 150.315 C 230.542 145.568, 229.355 145.378, 231 144.770 C 231.825 144.465, 243.525 143.698, 257 143.065 C 274.353 142.249, 281.879 141.537, 282.798 140.623 C 283.860 139.567, 282.639 137.866, 276.072 131.255 C 262.814 117.908, 247.468 108.848, 226 101.694 C 210.491 96.526, 195.654 93.490, 163.935 88.995 C 122.019 83.053, 110.540 80.793, 97.495 75.912 C 94.499 74.791, 91.749 73.941, 91.385 74.022 C 91.021 74.104, 90.448 73.780, 90.112 73.302 C 89.077 71.833, 79 64.785, 79 65.530 M 229.324 166.750 C 226.974 171.536, 226.505 173.758, 226.530 180 C 226.550 185.232, 227.096 188.501, 228.336 190.810 C 230.527 194.891, 236.854 202, 238.295 202 C 238.879 202, 242.766 198.738, 246.932 194.750 C 273.955 168.890, 278.117 164.783, 277.711 164.378 C 277.272 163.938, 240.180 161.024, 234.824 161.008 C 232.556 161.001, 231.715 161.880, 229.324 166.750 M 439.656 162.539 C 429.842 163.263, 421.622 164.044, 421.391 164.276 C 420.769 164.898, 459.701 201.448, 461.363 201.802 C 463.155 202.184, 469.438 194.588, 471.590 189.439 C 474.219 183.148, 473.692 173.879, 470.324 167.146 L 467.500 161.500 462.500 161.362 C 459.750 161.286, 449.470 161.815, 439.656 162.539 M 603.500 190 C 606.209 192.750, 608.650 195, 608.925 195 C 609.200 195, 607.209 192.750, 604.500 190 C 601.791 187.250, 599.350 185, 599.075 185 C 598.800 185, 600.791 187.250, 603.500 190 M 396 203.057 C 380.926 206.141, 373.235 223.877, 376.016 249.144 C 377.947 266.697, 383.071 282.675, 391.522 297.500 C 397.204 307.466, 398.847 309.318, 398.220 305.048 C 397.974 303.372, 397.416 302, 396.980 302 C 396.544 302, 396.441 301.030, 396.751 299.844 C 397.061 298.658, 396.907 297.940, 396.408 298.248 C 395.908 298.557, 395.462 297.614, 395.415 296.155 C 395.368 294.695, 394.561 289.450, 393.621 284.500 C 392.068 276.324, 391.276 258.391, 392.417 257.250 C 392.674 256.992, 394.261 257.762, 395.942 258.959 L 399 261.136 399 252.593 L 399 244.050 401.565 245.025 C 409.019 247.859, 418.530 244.388, 423.113 237.160 C 424.701 234.657, 426 231.326, 426 229.759 C 426 227.020, 426.145 226.934, 429.750 227.546 C 431.813 227.896, 435.061 228.583, 436.970 229.072 C 438.878 229.560, 440.810 229.590, 441.263 229.137 C 441.715 228.685, 439.648 225.198, 436.668 221.389 C 430.951 214.084, 421.756 206.884, 415.177 204.562 C 409.683 202.624, 401.324 201.968, 396 203.057 M 513 221.099 C 501.452 222.068, 479.282 228.541, 475.635 232.008 C 475.158 232.461, 479.087 241.126, 484.385 251.304 C 489.673 261.464, 494 270.324, 494 270.993 C 494 271.663, 492.600 274.284, 490.889 276.819 C 489.178 279.355, 488.517 280.816, 489.419 280.067 C 490.672 279.027, 493.181 278.855, 500.015 279.340 C 529.988 281.468, 558.619 294.639, 582.745 317.399 C 589.144 323.434, 590.265 324.083, 596.604 325.415 C 615.826 329.455, 639.194 329.847, 659 326.464 C 668.428 324.853, 689.436 318.454, 694.737 315.579 L 697.500 314.080 692.960 314.040 C 681.706 313.941, 666.345 307.401, 652 296.602 C 647.325 293.083, 634.950 282.910, 624.500 273.995 C 591.554 245.890, 577.262 236.085, 558.047 228.409 C 542.200 222.078, 528.267 219.817, 513 221.099 M 207 286.150 C 201.775 286.633, 196.825 287.299, 196 287.630 C 195.175 287.961, 193.050 288.382, 191.277 288.565 C 186.606 289.050, 168.127 295.399, 161.329 298.855 C 142.446 308.456, 122.159 328.824, 111.772 348.608 C 109.721 352.514, 108.334 356, 108.688 356.355 C 109.043 356.710, 108.782 357, 108.108 357 C 107.434 357, 107.160 357.450, 107.500 358 C 107.840 358.550, 107.593 359, 106.952 359 C 106.311 359, 106.045 359.675, 106.362 360.500 C 106.678 361.325, 106.453 362, 105.862 362 C 105.270 362, 105.045 362.675, 105.362 363.500 C 105.678 364.325, 105.453 365, 104.862 365 C 104.270 365, 104.040 365.661, 104.349 366.468 C 104.659 367.275, 104.539 368.167, 104.081 368.450 C 102.564 369.387, 101.019 384.353, 101.392 394.500 C 101.819 406.095, 102.864 416.971, 103.679 418.289 C 103.991 418.794, 104.406 421.240, 104.602 423.725 C 104.798 426.211, 105.413 428.793, 105.970 429.464 C 106.527 430.135, 106.753 430.914, 106.472 431.195 C 105.965 431.701, 108.497 444.112, 109.695 447 C 110.037 447.825, 110.246 448.836, 110.160 449.248 C 110.073 449.659, 111.099 455.734, 112.441 462.748 C 116.763 485.343, 117.400 491.203, 117.361 508 C 117.319 525.987, 115.293 538.863, 110.498 551.602 C 108.470 556.991, 108.300 558.178, 109.496 558.637 C 110.287 558.940, 111.511 558.957, 112.217 558.673 C 112.976 558.368, 112.733 558.126, 111.622 558.079 C 110.484 558.031, 112.850 555.972, 117.622 552.859 C 128.373 545.843, 139.155 535.207, 145.982 524.885 C 158.754 505.572, 164.168 484.352, 167.511 440.500 C 170.987 394.893, 175.931 375.751, 188.528 359.124 C 198.004 346.617, 213.986 336.146, 232.250 330.479 C 237.063 328.986, 241 327.548, 241 327.284 C 241 326.534, 218.864 289.692, 217.348 287.919 C 216.604 287.049, 216.297 286.037, 216.664 285.669 C 217.032 285.301, 217.146 285.061, 216.917 285.136 C 216.688 285.211, 212.225 285.667, 207 286.150 M 458.688 335.750 C 458.358 339.462, 457.545 350.947, 456.881 361.271 L 455.673 380.043 445.337 389.144 C 439.651 394.149, 435 398.345, 435 398.466 C 435 398.588, 437.238 405.051, 439.974 412.828 C 444.361 425.298, 445.649 427.826, 450.878 434.234 C 463.885 450.171, 474.327 468.492, 478.957 483.500 C 480.298 487.847, 481.339 494.597, 481.703 501.309 C 482.384 513.864, 481.230 512.392, 498.500 522.743 C 517.480 534.118, 539.138 544.116, 558.858 550.605 C 568.996 553.942, 586.692 558.206, 588.752 557.809 C 589.787 557.610, 587.823 555.828, 583.448 552.998 C 574.824 547.419, 561.707 534.565, 556.063 526.162 C 543.152 506.941, 537.919 486.514, 533.989 440 C 531.380 409.123, 529.252 395.526, 525.070 383 C 516.289 356.702, 498.420 340.005, 469.496 331.072 C 459.321 327.929, 459.385 327.901, 458.688 335.750 M 308.880 332.284 C 309.314 332.716, 314.806 332.938, 321.084 332.779 L 332.500 332.490 320.296 331.995 C 313.584 331.723, 308.447 331.853, 308.880 332.284 M 381.500 332 L 369.500 332.598 381.191 332.799 C 388.132 332.918, 393.133 332.594, 393.500 332 C 393.840 331.450, 393.979 331.091, 393.809 331.201 C 393.639 331.312, 388.100 331.671, 381.500 332 M 337.872 338.250 C 339.063 339.768, 340.851 339.972, 351.372 339.785 L 363.500 339.570 351.562 339.252 C 344.176 339.055, 339.029 338.469, 338.062 337.717 C 336.687 336.646, 336.664 336.709, 337.872 338.250 M 273.206 368.741 C 276.895 368.932, 283.195 368.934, 287.206 368.743 C 291.218 368.553, 288.200 368.396, 280.500 368.395 C 272.800 368.393, 269.518 368.549, 273.206 368.741 M 424.500 440.572 C 417.350 446.450, 410.323 452.247, 408.884 453.453 L 406.268 455.646 407.734 462.573 C 410.650 476.348, 408.024 499.195, 401.564 516.270 C 393.146 538.518, 376.656 562.421, 362.033 573.573 L 357 577.411 357.006 611.455 C 357.009 630.180, 357.306 649.274, 357.665 653.886 L 358.317 662.271 360.067 658.861 C 362.188 654.727, 373.625 641.517, 388.517 626 C 434.452 578.139, 453.984 552.675, 464.057 527.517 C 472.713 505.900, 471.084 487.065, 458.368 461.732 C 453.545 452.124, 445.176 438.890, 440.319 433.192 L 437.500 429.884 424.500 440.572 M 333.697 464.080 C 326.655 470.086, 320.580 475, 320.197 475 C 319.814 474.999, 314.574 470.949, 308.554 466 C 302.534 461.050, 297.287 457, 296.894 457 C 295.251 457, 293.749 471.892, 294.323 482.500 C 295.053 495.991, 298.284 509.169, 304.434 523.739 C 309.707 536.230, 313.839 543.245, 322.609 554.593 C 328.410 562.100, 342.290 576, 343.984 576 C 345.552 576, 345.997 561.725, 345.966 512.378 C 345.949 484.261, 346.232 459.399, 346.596 457.128 C 346.959 454.858, 347.086 453.036, 346.878 453.080 C 346.670 453.125, 340.739 458.075, 333.697 464.080 M 232.272 502 C 232.272 504.475, 232.467 505.488, 232.706 504.250 C 232.944 503.012, 232.944 500.988, 232.706 499.750 C 232.467 498.512, 232.272 499.525, 232.272 502 M 356.328 528.500 C 356.333 532.350, 356.513 533.802, 356.730 531.728 C 356.946 529.653, 356.943 526.503, 356.722 524.728 C 356.501 522.952, 356.324 524.650, 356.328 528.500 M 356.395 550.500 C 356.396 558.200, 356.553 561.218, 356.743 557.206 C 356.934 553.195, 356.932 546.895, 356.741 543.206 C 356.549 539.518, 356.393 542.800, 356.395 550.500 M 304.958 617.250 C 309.102 621.665, 310 622.459, 310 621.708 C 310 621.548, 307.863 619.410, 305.250 616.958 L 300.500 612.500 304.958 617.250 M 343.792 643.001 C 343.631 653.452, 343.837 662.002, 344.250 662.001 C 344.663 662, 345 653.450, 345 643 C 345 632.550, 344.794 624, 344.542 624 C 344.290 624, 343.952 632.550, 343.792 643.001"
    stroke="none"
    fill="#22b473"
    fill-rule="evenodd"
  >
  </path>
  <path
    stroke="none"
    fill="#f4f8f6"
    fill-rule="evenodd"
    d="M 304.029 144.771 C 301.640 149.022, 298.586 154.415, 297.243 156.757 C 295.603 159.617, 295.272 160.833, 296.234 160.464 C 297.022 160.161, 297.686 159.371, 297.709 158.707 C 297.732 158.043, 300.295 153.051, 303.405 147.613 C 306.516 142.176, 308.906 137.572, 308.717 137.384 C 308.529 137.195, 306.419 140.519, 304.029 144.771 M 341 154.459 C 341 154.734, 342.800 155.878, 345 157 C 347.200 158.122, 349 158.816, 349 158.541 C 349 158.266, 347.200 157.122, 345 156 C 342.800 154.878, 341 154.184, 341 154.459 M 350.244 245.250 L 350 332 356.441 332 C 359.984 332, 363.165 331.543, 363.510 330.984 C 363.856 330.425, 364.506 330.195, 364.956 330.473 C 365.405 330.751, 366.329 330.308, 367.009 329.489 C 367.689 328.670, 367.895 328, 367.467 328 C 367.040 328, 367.536 326.987, 368.570 325.750 C 369.603 324.512, 368.642 325.188, 366.432 327.250 C 362.763 330.675, 361.922 331, 356.713 331 L 351.011 331 350.750 244.750 L 350.489 158.500 350.244 245.250 M 267.686 208.757 C 264.648 214.124, 262.013 219.149, 261.831 219.924 C 261.649 220.699, 260.712 222.158, 259.750 223.167 C 257.550 225.471, 257.337 227.795, 259.489 226.009 C 260.308 225.329, 260.684 224.298, 260.325 223.717 C 259.921 223.063, 260.294 222.899, 261.304 223.286 C 263.170 224.002, 264.579 222.476, 262.970 221.482 C 262.288 221.060, 262.947 218.979, 264.813 215.663 C 266.411 212.823, 269.174 207.912, 270.954 204.750 C 272.734 201.588, 273.970 199, 273.701 199 C 273.431 199, 270.725 203.391, 267.686 208.757 M 383.581 210.305 C 379.757 215.318, 376.953 222.412, 376.486 228.251 L 376.066 233.500 377.043 228.121 C 378.207 221.718, 381.110 214.855, 384.581 210.305 C 385.967 208.487, 386.877 207, 386.602 207 C 386.327 207, 384.967 208.487, 383.581 210.305 M 285.264 214.718 C 286.784 214.947, 289.034 214.941, 290.264 214.704 C 291.494 214.467, 290.250 214.279, 287.500 214.286 C 284.750 214.294, 283.744 214.488, 285.264 214.718 M 407.264 214.718 C 408.784 214.947, 411.034 214.941, 412.264 214.704 C 413.494 214.467, 412.250 214.279, 409.500 214.286 C 406.750 214.294, 405.744 214.488, 407.264 214.718 M 273.583 217.013 C 270.879 218.069, 268.179 219.453, 267.583 220.089 C 266.900 220.818, 267.424 220.764, 269 219.944 C 270.375 219.229, 273.975 217.848, 277 216.876 C 280.025 215.903, 281.600 215.104, 280.500 215.101 C 279.400 215.097, 276.288 215.957, 273.583 217.013 M 418.960 216.523 C 421.413 217.288, 423.574 217.760, 423.761 217.572 C 424.273 217.061, 417.942 214.990, 416.101 215.067 C 415.220 215.104, 416.507 215.759, 418.960 216.523 M 435.226 220.386 C 435.626 220.918, 435.491 221.908, 434.928 222.587 C 434.217 223.444, 434.271 224.050, 435.106 224.565 C 435.841 225.020, 436.048 224.887, 435.638 224.224 C 435.269 223.627, 435.425 222.856, 435.984 222.510 C 436.543 222.165, 437.056 222.359, 437.125 222.941 C 437.194 223.523, 437.306 224.450, 437.375 225 C 437.444 225.550, 437.950 226.068, 438.500 226.151 C 439.050 226.234, 440.087 227.021, 440.805 227.901 C 441.939 229.290, 441.981 229.238, 441.125 227.500 C 440.583 226.400, 438.871 224.132, 437.320 222.460 C 435.769 220.788, 434.827 219.855, 435.226 220.386 M 307.349 224.327 C 309.357 226.981, 311 229.644, 311 230.243 C 311 230.843, 311.276 231.057, 311.614 230.719 C 312.406 229.927, 308.708 223.938, 305.881 221.434 C 304.680 220.370, 305.341 221.672, 307.349 224.327 M 312.656 235.500 C 312.991 237.700, 313.431 239.688, 313.633 239.917 C 314.390 240.776, 313.823 235.420, 312.953 233.500 C 312.322 232.106, 312.232 232.712, 312.656 235.500 M 375.286 239.500 C 375.294 242.250, 375.488 243.256, 375.718 241.736 C 375.947 240.216, 375.941 237.966, 375.704 236.736 C 375.467 235.506, 375.279 236.750, 375.286 239.500 M 381.272 246 C 381.272 248.475, 381.467 249.488, 381.706 248.250 C 381.944 247.012, 381.944 244.988, 381.706 243.750 C 381.467 242.512, 381.272 243.525, 381.272 246 M 314.272 247 C 314.272 249.475, 314.467 250.488, 314.706 249.250 C 314.944 248.012, 314.944 245.988, 314.706 244.750 C 314.467 243.512, 314.272 244.525, 314.272 247 M 377.617 259.500 C 378.187 264.537, 383.822 283.511, 384.536 282.798 C 384.747 282.587, 383.779 278.834, 382.385 274.457 C 380.992 270.081, 379.221 263.800, 378.451 260.500 C 377.059 254.535, 377.054 254.529, 377.617 259.500 M 310.154 272.154 C 309.501 274.984, 309.148 277.481, 309.370 277.704 C 309.593 277.926, 310.326 275.809, 311 273 C 311.674 270.191, 312.027 267.693, 311.783 267.450 C 311.540 267.207, 310.807 269.324, 310.154 272.154 M 305.231 288.731 C 303.482 294.040, 302.218 298.551, 302.422 298.755 C 302.626 298.959, 304.236 294.794, 306 289.500 C 307.764 284.206, 309.028 279.694, 308.809 279.475 C 308.590 279.256, 306.980 283.421, 305.231 288.731 M 394.480 300.151 C 394.622 301.945, 395.249 303.583, 395.875 303.792 C 396.500 304, 396.790 304.531, 396.517 304.972 C 396.245 305.413, 396.715 306.348, 397.561 307.051 C 398.747 308.035, 398.611 307.087, 396.966 302.914 C 394.347 296.267, 394.158 296.058, 394.480 300.151 M 299.374 305.079 C 298.223 308.282, 296.176 311.391, 294.006 313.232 C 292.078 314.868, 291.400 315.752, 292.500 315.195 C 293.600 314.639, 295.444 313.130, 296.598 311.842 C 298.748 309.441, 302.421 301.087, 301.660 300.326 C 301.427 300.093, 300.398 302.232, 299.374 305.079 M 251.553 311.086 C 252.116 311.997, 261.968 315.366, 262.503 314.830 C 262.709 314.624, 260.223 313.526, 256.980 312.390 C 253.736 311.254, 251.294 310.667, 251.553 311.086 M 276.750 317.723 C 278.538 317.945, 281.462 317.945, 283.250 317.723 C 285.038 317.502, 283.575 317.320, 280 317.320 C 276.425 317.320, 274.962 317.502, 276.750 317.723 M 399.160 320.945 C 399.059 323.118, 397.993 325.519, 396.273 327.445 L 393.546 330.500 396.848 327.406 C 399.601 324.826, 400.081 323.746, 399.735 320.906 L 399.320 317.500 399.160 320.945 M 302.085 324.554 C 302.131 325.074, 303.819 326.902, 305.835 328.616 C 308.648 331.007, 309.965 331.534, 311.500 330.882 C 313.396 330.077, 313.386 330.045, 311.311 330.266 C 309.954 330.411, 307.768 329.190, 305.561 327.054 C 303.602 325.158, 302.038 324.033, 302.085 324.554 M 301.632 332.090 C 301.284 333.828, 301.055 336.656, 301.122 338.375 C 301.195 340.235, 301.594 339.100, 302.108 335.570 C 303.028 329.260, 302.691 326.795, 301.632 332.090 M 279.083 360.377 C 280.106 361.303, 288 364.989, 288 364.541 C 288 363.972, 280.453 360, 279.373 360 C 278.985 360, 278.854 360.170, 279.083 360.377 M 328.482 363.028 C 328.135 363.590, 328.222 363.985, 328.676 363.906 C 330.692 363.556, 332.067 364.082, 331.507 364.989 C 331.144 365.576, 331.593 365.710, 332.612 365.319 C 333.868 364.836, 334.109 365.015, 333.510 365.985 C 332.965 366.866, 333.077 367.070, 333.845 366.595 C 335.522 365.559, 335.323 365.219, 332.057 363.529 C 330.149 362.543, 328.892 362.366, 328.482 363.028 M 341.234 369.306 C 342.188 370.072, 342.638 371.063, 342.234 371.509 C 341.831 371.955, 342.053 372.003, 342.729 371.614 C 344.037 370.863, 348.009 372.564, 349.235 374.400 C 349.746 375.165, 349.974 375.125, 349.985 374.267 C 349.993 373.589, 347.637 371.882, 344.750 370.474 C 341.863 369.067, 340.281 368.541, 341.234 369.306 M 266.998 375.576 C 267 380.948, 267.318 381.932, 269.750 384.076 L 272.500 386.500 270.250 383.936 C 268.539 381.986, 268 380.136, 268 376.215 L 268 371.058 281.250 370.776 L 294.500 370.494 280.748 369.997 L 266.997 369.500 266.998 375.576 M 601.286 391.500 C 601.294 394.250, 601.488 395.256, 601.718 393.736 C 601.947 392.216, 601.941 389.966, 601.704 388.736 C 601.467 387.506, 601.279 388.750, 601.286 391.500 M 350.374 402.500 C 350.376 408.550, 350.541 410.896, 350.740 407.713 C 350.939 404.531, 350.937 399.581, 350.736 396.713 C 350.535 393.846, 350.372 396.450, 350.374 402.500"
  >
  </path>
</svg>